<svg width="32" height="32" viewBox="0 0 32 32" fill="none" xmlns="http://www.w3.org/2000/svg">
<path d="M8.78442 24.9673C8.78442 25.8433 9.06519 26.547 9.62671 27.0786C10.1882 27.6177 10.9257 27.8872 11.8391 27.8872H20.1609C21.0818 27.8872 21.8193 27.6177 22.3733 27.0786C22.9348 26.547 23.2156 25.8433 23.2156 24.9673V7.03223C23.2156 6.15625 22.9348 5.45247 22.3733 4.9209C21.8193 4.38184 21.0818 4.1123 20.1609 4.1123H11.8391C10.9257 4.1123 10.1882 4.38184 9.62671 4.9209C9.06519 5.45247 8.78442 6.15625 8.78442 7.03223V24.9673ZM10.5925 24.6753V7.32422C10.5925 6.875 10.7198 6.5306 10.9744 6.29102C11.2289 6.04395 11.5958 5.92041 12.075 5.92041H19.9363C20.408 5.92041 20.7711 6.04395 21.0256 6.29102C21.2802 6.5306 21.4075 6.875 21.4075 7.32422V24.6753C21.4075 25.1245 21.2802 25.4689 21.0256 25.7085C20.7711 25.9556 20.408 26.0791 19.9363 26.0791H12.075C11.5958 26.0791 11.2289 25.9556 10.9744 25.7085C10.7198 25.4689 10.5925 25.1245 10.5925 24.6753ZM13.4788 10.2104C13.8531 10.2104 14.1825 10.0682 14.467 9.78369C14.7515 9.49919 14.8938 9.15853 14.8938 8.76172C14.8938 8.37988 14.7515 8.05046 14.467 7.77344C14.1825 7.48893 13.8531 7.34668 13.4788 7.34668C13.0745 7.34668 12.7301 7.48893 12.4456 7.77344C12.1685 8.05046 12.03 8.37988 12.03 8.76172C12.03 9.15853 12.1685 9.49919 12.4456 9.78369C12.7301 10.0682 13.0745 10.2104 13.4788 10.2104Z" fill="#222222"/>
</svg>
