<svg width="32" height="32" viewBox="0 0 32 32" fill="none" xmlns="http://www.w3.org/2000/svg">
<path fill-rule="evenodd" clip-rule="evenodd" d="M12.4151 4C9.96806 4 8.00006 6.053 8.00006 8.568C8.00006 10.097 8.72806 11.455 9.84706 12.284C9.27034 12.7161 8.80287 13.2773 8.48213 13.9226C8.16138 14.5679 7.99628 15.2794 8.00006 16C8.00006 17.53 8.72806 18.887 9.84706 19.716C9.27034 20.1481 8.80287 20.7093 8.48213 21.3546C8.16138 21.9999 7.99628 22.7114 8.00006 23.432C8.00006 25.947 9.96806 28 12.4151 28C14.8611 28 16.8301 25.947 16.8301 23.432V19.57C17.6034 20.2148 18.5782 20.5683 19.5851 20.569C22.0321 20.568 24.0001 18.515 24.0001 16C24.0041 15.2793 23.8391 14.5678 23.5183 13.9224C23.1976 13.2771 22.73 12.7159 22.1531 12.284C22.7298 11.8519 23.1973 11.2907 23.518 10.6454C23.8387 10.0001 24.0038 9.28862 24.0001 8.568C24.0001 6.053 22.0321 4 19.5851 4H12.4151V4ZM9.65906 8.568C9.65906 6.977 10.9011 5.703 12.4151 5.703H15.1701V11.433H12.4151C10.9011 11.433 9.65906 10.158 9.65906 8.568V8.568ZM19.5851 11.432H16.8301V5.702H19.5851C21.1001 5.702 22.3411 6.977 22.3411 8.568C22.3411 10.158 21.1001 11.432 19.5851 11.432ZM9.66006 16C9.66006 14.41 10.9021 13.135 12.4161 13.135H15.1711V18.865H12.4151C10.9001 18.865 9.65906 17.59 9.65906 16H9.66006ZM16.8301 16C16.8301 14.41 18.0721 13.135 19.5861 13.135C21.1011 13.135 22.3421 14.409 22.3421 16C22.3421 17.59 21.1011 18.865 19.5861 18.865C18.0721 18.865 16.8311 17.591 16.8311 16H16.8301ZM9.66006 23.432C9.66006 21.842 10.9021 20.568 12.4161 20.568H15.1711V23.432C15.1711 25.023 13.9311 26.297 12.4161 26.297C10.9021 26.297 9.66006 25.023 9.66006 23.432Z" fill="#222222"/>
</svg>
