<svg width="32" height="32" viewBox="0 0 32 32" fill="none" xmlns="http://www.w3.org/2000/svg">
<path d="M5.54443 15.9829C5.54443 16.3123 5.63802 16.5856 5.8252 16.8027C6.01986 17.0124 6.30811 17.1509 6.68994 17.2183C7.38623 17.3231 7.88411 17.5776 8.18359 17.9819C8.48307 18.3862 8.63281 19.0413 8.63281 19.9473V23.103C8.63281 24.6304 8.99219 25.7609 9.71094 26.4946C10.4297 27.2284 11.5452 27.5952 13.0576 27.5952C13.2373 27.5952 13.4058 27.569 13.563 27.5166C13.7352 27.4417 13.8662 27.3369 13.9561 27.2021C14.0534 27.0674 14.1021 26.9064 14.1021 26.7192C14.1021 26.3075 13.9074 26.0529 13.5181 25.9556C13.4582 25.9406 13.3983 25.9256 13.3384 25.9106C13.286 25.9032 13.2261 25.8994 13.1587 25.8994C12.2153 25.832 11.549 25.57 11.1597 25.1133C10.7778 24.6641 10.5869 23.9191 10.5869 22.8784V19.1499C10.5869 18.1991 10.3473 17.4616 9.86816 16.9375C9.389 16.4134 8.71143 16.1102 7.83545 16.0278C7.82048 16.0278 7.81299 16.0203 7.81299 16.0054C7.81299 15.9904 7.82048 15.9829 7.83545 15.9829C8.71143 15.9006 9.389 15.5973 9.86816 15.0732C10.3473 14.5492 10.5869 13.8117 10.5869 12.8608V9.12109C10.5869 8.0804 10.7778 7.33545 11.1597 6.88623C11.549 6.43701 12.2153 6.17871 13.1587 6.11133C13.2485 6.10384 13.3309 6.09635 13.4058 6.08887C13.4806 6.07389 13.548 6.05518 13.6079 6.03271C13.9373 5.92041 14.1021 5.6696 14.1021 5.28027C14.1021 5.07812 14.0496 4.91341 13.9448 4.78613C13.8475 4.65137 13.7052 4.55029 13.5181 4.48291C13.3608 4.4305 13.1699 4.4043 12.9453 4.4043C11.4779 4.4043 10.3923 4.7749 9.68848 5.51611C8.9847 6.25732 8.63281 7.38411 8.63281 8.89648V12.0635C8.63281 12.9619 8.48307 13.6133 8.18359 14.0176C7.88411 14.4219 7.38623 14.6764 6.68994 14.7812C6.30811 14.8411 6.01986 14.9797 5.8252 15.1968C5.63802 15.4064 5.54443 15.6685 5.54443 15.9829ZM26.4556 15.9829C26.4556 15.6685 26.3582 15.4064 26.1636 15.1968C25.9764 14.9797 25.6882 14.8411 25.2988 14.7812C24.6025 14.6689 24.1047 14.4144 23.8052 14.0176C23.5057 13.6133 23.356 12.9619 23.356 12.0635V8.89648C23.356 7.38411 23.0041 6.25732 22.3003 5.51611C21.5965 4.7749 20.5109 4.4043 19.0435 4.4043C18.8263 4.4043 18.6392 4.4305 18.4819 4.48291C18.2798 4.55029 18.13 4.65137 18.0327 4.78613C17.9354 4.91341 17.8867 5.07812 17.8867 5.28027C17.8867 5.65462 18.0552 5.90544 18.3921 6.03271C18.4445 6.05518 18.5081 6.07389 18.583 6.08887C18.6579 6.09635 18.7402 6.10384 18.8301 6.11133C19.7734 6.15625 20.4398 6.41081 20.8291 6.875C21.2184 7.33171 21.4131 8.0804 21.4131 9.12109V12.8608C21.4131 13.8117 21.6527 14.5716 22.1318 15.1406C22.611 15.7021 23.2848 15.9829 24.1533 15.9829C24.1683 15.9829 24.1758 15.9904 24.1758 16.0054C24.1758 16.0203 24.1683 16.0278 24.1533 16.0278C23.2848 16.0278 22.611 16.3086 22.1318 16.8701C21.6527 17.4316 21.4131 18.1916 21.4131 19.1499V22.8784C21.4131 23.9191 21.2184 24.6641 20.8291 25.1133C20.4398 25.57 19.7734 25.832 18.8301 25.8994C18.7627 25.8994 18.6991 25.9032 18.6392 25.9106C18.5868 25.9256 18.5343 25.9406 18.4819 25.9556C18.2798 25.993 18.13 26.0754 18.0327 26.2026C17.9354 26.3299 17.8867 26.5021 17.8867 26.7192C17.8867 26.9139 17.9354 27.0786 18.0327 27.2134C18.13 27.3556 18.2648 27.4567 18.437 27.5166C18.5942 27.569 18.759 27.5952 18.9312 27.5952C20.451 27.5952 21.5666 27.2284 22.2778 26.4946C22.9966 25.7609 23.356 24.6304 23.356 23.103V19.9473C23.356 19.0413 23.5057 18.3862 23.8052 17.9819C24.1047 17.5776 24.6025 17.3231 25.2988 17.2183C25.6882 17.1509 25.9764 17.0124 26.1636 16.8027C26.3582 16.5856 26.4556 16.3123 26.4556 15.9829Z" fill="#222222"/>
</svg>
