<svg width="32" height="32" viewBox="0 0 32 32" fill="none" xmlns="http://www.w3.org/2000/svg">
<path d="M11.8391 27.8872H20.1609C21.0818 27.8872 21.8193 27.6177 22.3733 27.0786C22.9348 26.547 23.2156 25.8433 23.2156 24.9673V7.03223C23.2156 6.15625 22.9348 5.45247 22.3733 4.9209C21.8193 4.38184 21.0818 4.1123 20.1609 4.1123H11.8391C10.9257 4.1123 10.1882 4.38184 9.62671 4.9209C9.06519 5.45247 8.78442 6.15625 8.78442 7.03223V24.9673C8.78442 25.8433 9.06519 26.547 9.62671 27.0786C10.1882 27.6177 10.9257 27.8872 11.8391 27.8872ZM12.075 26.0791C11.5958 26.0791 11.2289 25.9556 10.9744 25.7085C10.7198 25.4689 10.5925 25.1245 10.5925 24.6753V7.32422C10.5925 6.875 10.7198 6.5306 10.9744 6.29102C11.2289 6.04395 11.5958 5.92041 12.075 5.92041H13.5125C13.6921 5.92041 13.782 6.00651 13.782 6.17871V6.43701C13.782 6.66911 13.8531 6.86003 13.9954 7.00977C14.1376 7.15202 14.3248 7.22314 14.5569 7.22314H17.4543C17.6939 7.22314 17.8811 7.15202 18.0159 7.00977C18.1581 6.86003 18.2292 6.66911 18.2292 6.43701V6.17871C18.2292 6.00651 18.3191 5.92041 18.4988 5.92041H19.9363C20.408 5.92041 20.7711 6.04395 21.0256 6.29102C21.2802 6.5306 21.4075 6.875 21.4075 7.32422V24.6753C21.4075 25.1245 21.2802 25.4689 21.0256 25.7085C20.7711 25.9556 20.408 26.0791 19.9363 26.0791H12.075ZM13.6248 25.2593H18.3977C18.5474 25.2593 18.671 25.2106 18.7683 25.1133C18.8656 25.016 18.9143 24.8887 18.9143 24.7314C18.9143 24.5742 18.8656 24.4469 18.7683 24.3496C18.671 24.2598 18.5474 24.2148 18.3977 24.2148H13.6248C13.475 24.2148 13.3477 24.2598 13.2429 24.3496C13.1456 24.4469 13.0969 24.5742 13.0969 24.7314C13.0969 24.8887 13.1456 25.016 13.2429 25.1133C13.3477 25.2106 13.475 25.2593 13.6248 25.2593Z" fill="#222222"/>
</svg>
