<svg width="32" height="32" viewBox="0 0 32 32" fill="none" xmlns="http://www.w3.org/2000/svg">
<path d="M8.45901 8.20773C9.20501 8.81373 9.48501 8.76773 10.887 8.67373L24.102 7.88073C24.382 7.88073 24.149 7.60073 24.056 7.55473L21.86 5.96773C21.44 5.64173 20.879 5.26773 19.805 5.36073L7.01001 6.29473C6.54401 6.34073 6.45001 6.57473 6.63601 6.76073L8.45901 8.20773ZM9.25201 11.2877V25.1917C9.25201 25.9387 9.62501 26.2187 10.466 26.1717L24.989 25.3317C25.83 25.2857 25.924 24.7717 25.924 24.1647V10.3537C25.924 9.74773 25.691 9.42073 25.176 9.46673L9.99901 10.3537C9.43901 10.4007 9.25201 10.6807 9.25201 11.2867V11.2877ZM23.589 12.0327C23.682 12.4527 23.589 12.8727 23.169 12.9207L22.469 13.0607V23.3247C21.861 23.6517 21.301 23.8387 20.834 23.8387C20.086 23.8387 19.899 23.6047 19.339 22.9057L14.762 15.7197V22.6717L16.21 22.9997C16.21 22.9997 16.21 23.8397 15.042 23.8397L11.82 24.0257C11.727 23.8397 11.82 23.3727 12.147 23.2797L12.987 23.0467V13.8537L11.822 13.7597C11.728 13.3397 11.962 12.7337 12.615 12.6867L16.071 12.4537L20.835 19.7327V13.2927L19.62 13.1537C19.527 12.6397 19.9 12.2667 20.367 12.2207L23.589 12.0327ZM5.93601 5.03473L19.246 4.05473C20.88 3.91473 21.301 4.00773 22.328 4.75473L26.577 7.74073C27.277 8.25373 27.511 8.39373 27.511 8.95373V25.3317C27.511 26.3577 27.138 26.9657 25.831 27.0577L10.373 27.9917C9.39301 28.0387 8.92501 27.8987 8.41101 27.2447L5.28201 23.1847C4.72201 22.4377 4.48901 21.8787 4.48901 21.2247V6.66673C4.48901 5.82773 4.86301 5.12673 5.93601 5.03473V5.03473Z" fill="#222222"/>
</svg>
