<svg width="38" height="32" viewBox="0 0 38 32" fill="none" xmlns="http://www.w3.org/2000/svg">
<path d="M10.4438 27.5039C10.7358 27.5039 11.0054 27.444 11.2524 27.3242C11.4995 27.2044 11.8027 26.9873 12.1621 26.6729L16.8789 22.4502L15.5762 21.1924L10.9043 25.5049V22.293C10.9043 21.9785 10.8182 21.7464 10.646 21.5967C10.4813 21.4395 10.2754 21.3608 10.0283 21.3608H7.83838C6.84261 21.3608 6.06396 21.0951 5.50244 20.5635C4.9484 20.0244 4.67139 19.2308 4.67139 18.1826V7.95166C4.67139 6.90348 4.9484 6.10986 5.50244 5.5708C6.06396 5.03174 6.84261 4.76221 7.83838 4.76221H23.6846C24.6803 4.76221 25.4552 5.03174 26.0093 5.5708C26.5708 6.10986 26.8516 6.90348 26.8516 7.95166V9.52393H28.6597V7.88428C28.6597 6.87354 28.465 6.00879 28.0757 5.29004C27.6938 4.57129 27.1398 4.021 26.4136 3.63916C25.6873 3.25732 24.8151 3.06641 23.7969 3.06641H7.72607C6.75277 3.06641 5.89925 3.25732 5.16553 3.63916C4.43929 4.021 3.87402 4.57129 3.46973 5.29004C3.06543 6.00879 2.86328 6.87354 2.86328 7.88428V18.2275C2.86328 19.2458 3.06543 20.1143 3.46973 20.833C3.87402 21.5518 4.43929 22.1021 5.16553 22.4839C5.89925 22.8582 6.75277 23.0454 7.72607 23.0454H9.2085V26.1226C9.2085 26.5568 9.31331 26.8937 9.52295 27.1333C9.74007 27.3804 10.047 27.5039 10.4438 27.5039ZM28.7383 28.7617C29.1276 28.7617 29.4271 28.6344 29.6367 28.3799C29.8464 28.1253 29.9512 27.7847 29.9512 27.3579V24.6626H30.4229C31.3587 24.6626 32.1785 24.4792 32.8823 24.1123C33.5861 23.7454 34.1326 23.2176 34.522 22.5288C34.9188 21.84 35.1172 21.0052 35.1172 20.0244V13.3872C35.1172 12.4064 34.9188 11.5716 34.522 10.8828C34.1326 10.1865 33.5861 9.65495 32.8823 9.28809C32.1785 8.92122 31.3587 8.73779 30.4229 8.73779H19.5181C18.5373 8.73779 17.695 8.92122 16.9912 9.28809C16.2949 9.65495 15.7596 10.1865 15.3853 10.8828C15.0184 11.5716 14.835 12.4064 14.835 13.3872V20.0244C14.835 21.0052 15.0184 21.8438 15.3853 22.54C15.7596 23.2288 16.2949 23.7529 16.9912 24.1123C17.695 24.4792 18.5373 24.6626 19.5181 24.6626H23.3926L27.1436 27.8745C27.488 28.1665 27.7725 28.3874 27.9971 28.5371C28.2217 28.6868 28.4688 28.7617 28.7383 28.7617ZM28.2666 26.729L24.6616 23.4946C24.437 23.3 24.2349 23.1652 24.0552 23.0903C23.8755 23.008 23.6322 22.9668 23.3252 22.9668H19.6304C18.6945 22.9668 17.9608 22.716 17.4292 22.2144C16.8976 21.7127 16.6318 20.964 16.6318 19.9683L16.6431 13.4434C16.6431 12.4551 16.9051 11.7064 17.4292 11.1973C17.9608 10.6882 18.6945 10.4336 19.6304 10.4336H30.3218C31.2576 10.4336 31.9876 10.6882 32.5117 11.1973C33.0433 11.7064 33.3091 12.4551 33.3091 13.4434V19.9683C33.3091 20.9565 33.0433 21.7052 32.5117 22.2144C31.9801 22.716 31.2502 22.9668 30.3218 22.9668H29.1313C28.8918 22.9668 28.6859 23.0417 28.5137 23.1914C28.349 23.3411 28.2666 23.5732 28.2666 23.8877V26.729Z" fill="#2CA03C"/>
</svg>
