<svg width="25" height="32" viewBox="0 0 25 32" fill="none" xmlns="http://www.w3.org/2000/svg">
<path d="M2.24219 15.584C2.24219 16.7676 2.56738 17.6758 3.21777 18.3086C3.87402 18.9414 4.82031 19.2578 6.05664 19.2578H9.08008C9.84766 19.3516 10.6182 19.4863 11.3916 19.6621C12.165 19.832 12.9355 20.0459 13.7031 20.3037C14.4766 20.5615 15.2354 20.8633 15.9795 21.209C16.7295 21.5547 17.4619 21.9443 18.1768 22.3779V20.541C17.4854 20.1309 16.7734 19.7646 16.041 19.4424C15.3145 19.1143 14.5674 18.8301 13.7998 18.5898C13.0381 18.3438 12.2588 18.1416 11.4619 17.9834C10.665 17.8193 9.85645 17.6934 9.03613 17.6055H6.05664C5.27734 17.6055 4.7207 17.4502 4.38672 17.1396C4.05859 16.8291 3.89453 16.3105 3.89453 15.584V14.3096C3.89453 13.583 4.05859 13.0645 4.38672 12.7539C4.7207 12.4375 5.27734 12.2793 6.05664 12.2793H8.95703C9.78906 12.1973 10.6094 12.0742 11.418 11.9102C12.2324 11.7461 13.0264 11.5439 13.7998 11.3037C14.5732 11.0576 15.3262 10.7734 16.0586 10.4512C16.791 10.123 17.4971 9.75098 18.1768 9.33496V7.50684C17.5088 7.93457 16.7939 8.32129 16.0322 8.66699C15.2705 9.0127 14.4912 9.32031 13.6943 9.58984C12.9033 9.85938 12.1211 10.082 11.3477 10.2578C10.5742 10.4277 9.83594 10.5508 9.13281 10.627H6.05664C4.82031 10.627 3.87402 10.9434 3.21777 11.5762C2.56738 12.209 2.24219 13.1201 2.24219 14.3096V15.584ZM10.6621 18.959H9.08008L9.83594 22.7471C9.86523 22.917 9.8418 23.0547 9.76562 23.1602C9.69531 23.2656 9.60156 23.3418 9.48438 23.3887C9.35547 23.4355 9.21777 23.4326 9.07129 23.3799C8.9248 23.333 8.80762 23.2188 8.71973 23.0371L6.72461 18.792H5.03711L7.12012 23.415C7.37207 23.9717 7.67383 24.373 8.02539 24.6191C8.38281 24.8652 8.74609 25 9.11523 25.0234C9.48438 25.0469 9.82129 25.0088 10.126 24.9092C10.5771 24.7568 10.9258 24.4756 11.1719 24.0654C11.418 23.6553 11.4795 23.1514 11.3564 22.5537L10.6621 18.959ZM7.77051 11.3125V18.5723H9.43164V11.3125H7.77051ZM17.5791 21.2793C17.5791 21.7363 17.6787 22.1406 17.8779 22.4922C18.0771 22.8438 18.3525 23.1191 18.7041 23.3184C19.0557 23.5176 19.457 23.6172 19.9082 23.6172C20.3711 23.6172 20.7754 23.5176 21.1211 23.3184C21.4727 23.1191 21.748 22.8438 21.9473 22.4922C22.1465 22.1406 22.2461 21.7363 22.2461 21.2793V8.54395C22.2461 8.08691 22.1465 7.68555 21.9473 7.33984C21.748 6.98828 21.4727 6.71289 21.1211 6.51367C20.7754 6.31445 20.3711 6.21484 19.9082 6.21484C19.457 6.21484 19.0557 6.31445 18.7041 6.51367C18.3525 6.71289 18.0771 6.98828 17.8779 7.33984C17.6787 7.68555 17.5791 8.08691 17.5791 8.54395V21.2793ZM19.2402 21.2793V8.54395C19.2402 8.33887 19.2988 8.1748 19.416 8.05176C19.5391 7.92871 19.7031 7.86719 19.9082 7.86719C20.1133 7.86719 20.2773 7.92871 20.4004 8.05176C20.5293 8.1748 20.5938 8.33887 20.5938 8.54395V21.2793C20.5938 21.4844 20.5293 21.6484 20.4004 21.7715C20.2773 21.8945 20.1133 21.9561 19.9082 21.9561C19.7031 21.9561 19.5391 21.8945 19.416 21.7715C19.2988 21.6484 19.2402 21.4844 19.2402 21.2793Z" fill="#A6ECB3"/>
</svg>
