<svg width="32" height="32" viewBox="0 0 32 32" fill="none" xmlns="http://www.w3.org/2000/svg">
<path d="M3.72852 22.877H5.53662V9.20947C5.53662 8.8501 5.62646 8.58057 5.80615 8.40088C5.98584 8.22119 6.25537 8.13135 6.61475 8.13135H28.5479C28.5029 7.53239 28.3045 7.08317 27.9526 6.78369C27.6007 6.47673 27.1141 6.32324 26.4927 6.32324H6.13184C5.39062 6.32324 4.8029 6.52539 4.36865 6.92969C3.94189 7.3265 3.72852 7.91797 3.72852 8.7041V22.877ZM1.26904 24.5952H21.001C20.6715 24.0711 20.4993 23.4722 20.4844 22.7983C20.4844 22.6711 20.4806 22.5438 20.4731 22.4165C20.4731 22.2892 20.4731 22.1619 20.4731 22.0347H1.26904C0.917155 22.0347 0.617676 22.1619 0.370605 22.4165C0.123535 22.6636 0 22.9631 0 23.3149C0 23.6668 0.123535 23.9663 0.370605 24.2134C0.617676 24.4679 0.917155 24.5952 1.26904 24.5952ZM23.9658 24.7412H29.0869C29.7832 24.7412 30.3223 24.5578 30.7041 24.1909C31.0859 23.8241 31.2769 23.3075 31.2769 22.6411V11.4556C31.2769 10.7892 31.0822 10.2726 30.6929 9.90576C30.311 9.53141 29.7757 9.34424 29.0869 9.34424H23.9658C23.2695 9.34424 22.7305 9.53141 22.3486 9.90576C21.9668 10.2726 21.7759 10.7892 21.7759 11.4556V22.6411C21.7759 23.3075 21.9668 23.8241 22.3486 24.1909C22.7305 24.5578 23.2695 24.7412 23.9658 24.7412ZM23.9883 23.27C23.7412 23.27 23.554 23.2064 23.4268 23.0791C23.307 22.9443 23.2471 22.7497 23.2471 22.4951V11.6016C23.2471 11.347 23.307 11.1523 23.4268 11.0176C23.554 10.8828 23.7412 10.8154 23.9883 10.8154H25.0103C25.0552 10.8154 25.0776 10.8379 25.0776 10.8828V10.9839C25.0776 11.1785 25.1375 11.3358 25.2573 11.4556C25.3771 11.5754 25.5343 11.6353 25.729 11.6353H27.3237C27.5184 11.6353 27.6756 11.5754 27.7954 11.4556C27.9152 11.3358 27.9751 11.1785 27.9751 10.9839V10.8828C27.9751 10.8379 27.9976 10.8154 28.0425 10.8154H29.0532C29.3003 10.8154 29.4875 10.8828 29.6147 11.0176C29.742 11.1523 29.8057 11.347 29.8057 11.6016V22.4951C29.8057 22.7497 29.742 22.9443 29.6147 23.0791C29.4875 23.2064 29.3003 23.27 29.0532 23.27H23.9883ZM24.9878 22.6973H28.0425C28.3045 22.6973 28.4355 22.5662 28.4355 22.3042C28.4355 22.1919 28.3981 22.1021 28.3232 22.0347C28.2484 21.9598 28.1548 21.9224 28.0425 21.9224H24.9878C24.8755 21.9224 24.7856 21.9598 24.7183 22.0347C24.6509 22.1021 24.6172 22.1919 24.6172 22.3042C24.6172 22.5662 24.7407 22.6973 24.9878 22.6973Z" fill="#222222"/>
</svg>
