<svg width="180" height="86" viewBox="0 0 180 86" fill="none" xmlns="http://www.w3.org/2000/svg">
<path d="M6 32H16V11H22V32H32V11H38V37H0V11H6V32Z" fill="#222222"/>
<path d="M62.2637 37L50.0137 24.25V37H44V11H50.0137V23.5L62.0137 11H68.7637L56.2637 23.75L69.5137 37H62.2637Z" fill="#222222"/>
<path d="M77.8527 17.9C76.3194 19.4667 75.5527 21.5 75.5527 24C75.5527 26.5 76.3194 28.55 77.8527 30.15C79.4194 31.7167 81.4027 32.5 83.8027 32.5C86.2027 32.5 88.1694 31.7167 89.7027 30.15C91.2694 28.55 92.0527 26.5 92.0527 24C92.0527 21.5 91.2694 19.4667 89.7027 17.9C88.1694 16.3 86.2027 15.5 83.8027 15.5C81.4027 15.5 79.4194 16.3 77.8527 17.9ZM94.0027 14.2C96.7027 16.8333 98.0527 20.1 98.0527 24C98.0527 27.9 96.7027 31.1667 94.0027 33.8C91.3027 36.4333 87.9027 37.75 83.8027 37.75C79.7027 37.75 76.3027 36.4333 73.6027 33.8C70.9027 31.1667 69.5527 27.9 69.5527 24C69.5527 20.1 70.9027 16.8333 73.6027 14.2C76.3027 11.5667 79.7027 10.25 83.8027 10.25C87.9027 10.25 91.3027 11.5667 94.0027 14.2Z" fill="#222222"/>
<path d="M111.299 16.25L110.549 25.5C110.249 29.3667 109.299 32.25 107.699 34.15C106.099 36.0167 103.799 37.2167 100.799 37.75L99.5488 32.25C101.015 31.9833 102.149 31.3667 102.949 30.4C103.782 29.4 104.315 27.7667 104.549 25.5L106.049 11H126V37H120V16.25H111.299Z" fill="#222222"/>
<path d="M150.922 30.1C152.522 28.4667 153.322 26.4333 153.322 24C153.322 21.5667 152.522 19.55 150.922 17.95C149.356 16.3167 147.489 15.5 145.322 15.5C143.156 15.5 141.272 16.3167 139.672 17.95C138.106 19.55 137.322 21.5667 137.322 24C137.322 26.4333 138.106 28.4667 139.672 30.1C141.272 31.7 143.156 32.5 145.322 32.5C147.489 32.5 149.356 31.7 150.922 30.1ZM135.022 33.85C132.556 31.2167 131.322 27.9333 131.322 24C131.322 20.0667 132.556 16.8 135.022 14.2C137.522 11.5667 140.539 10.25 144.072 10.25C145.272 10.25 146.406 10.4167 147.472 10.75C148.539 11.0833 149.389 11.4833 150.022 11.95C150.689 12.3833 151.256 12.8333 151.722 13.3C152.222 13.7667 152.572 14.1667 152.772 14.5L153.072 15H153.322L153.572 11H159V37H153.572L153.322 33H153.072C153.006 33.1333 152.906 33.3167 152.772 33.55C152.639 33.75 152.306 34.1167 151.772 34.65C151.239 35.1833 150.656 35.6667 150.022 36.1C149.422 36.5 148.572 36.8667 147.472 37.2C146.406 37.5667 145.272 37.75 144.072 37.75C140.539 37.75 137.522 36.45 135.022 33.85Z" fill="#222222"/>
<path d="M18 77L5.75 64.25V77H0V51H5.75V63.5L17.75 51H24.5L12 63.75L25.25 77H18Z" fill="#222222"/>
<path d="M44.8656 70.1C46.4656 68.4667 47.2656 66.4333 47.2656 64C47.2656 61.5667 46.4656 59.55 44.8656 57.95C43.299 56.3167 41.4323 55.5 39.2656 55.5C37.099 55.5 35.2156 56.3167 33.6156 57.95C32.049 59.55 31.2656 61.5667 31.2656 64C31.2656 66.4333 32.049 68.4667 33.6156 70.1C35.2156 71.7 37.099 72.5 39.2656 72.5C41.4323 72.5 43.299 71.7 44.8656 70.1ZM28.9656 73.85C26.499 71.2167 25.2656 67.9333 25.2656 64C25.2656 60.0667 26.499 56.8 28.9656 54.2C31.4656 51.5667 34.4823 50.25 38.0156 50.25C39.2156 50.25 40.349 50.4167 41.4156 50.75C42.4823 51.0833 43.3323 51.4833 43.9656 51.95C44.6323 52.3833 45.199 52.8333 45.6656 53.3C46.1656 53.7667 46.5156 54.1667 46.7156 54.5L47.0156 55H47.2656L47.5156 51H53V77H47.5156L47.2656 73H47.0156C46.949 73.1333 46.849 73.3167 46.7156 73.55C46.5823 73.75 46.249 74.1167 45.7156 74.65C45.1823 75.1833 44.599 75.6667 43.9656 76.1C43.3656 76.5 42.5156 76.8667 41.4156 77.2C40.349 77.5667 39.2156 77.75 38.0156 77.75C34.4823 77.75 31.4656 76.45 28.9656 73.85Z" fill="#222222"/>
<path d="M57 84V71.75H59.5C59.6667 71.55 59.8833 71.2667 60.15 70.9C60.45 70.5333 60.85 69.6667 61.35 68.3C61.85 66.9 62.15 65.3833 62.25 63.75L63.1 51H83V71.75H87V84H81V77H63V84H57ZM68.5 56.25L68 63.75C67.9 65.3833 67.6333 66.8667 67.2 68.2C66.8 69.5333 66.4167 70.4667 66.05 71L65.5 71.75H77V56.25H68.5Z" fill="#222222"/>
<path d="M97.5559 57.9C96.0225 59.4667 95.2559 61.5 95.2559 64C95.2559 66.5 96.0225 68.55 97.5559 70.15C99.1225 71.7167 101.106 72.5 103.506 72.5C105.906 72.5 107.873 71.7167 109.406 70.15C110.973 68.55 111.756 66.5 111.756 64C111.756 61.5 110.973 59.4667 109.406 57.9C107.873 56.3 105.906 55.5 103.506 55.5C101.106 55.5 99.1225 56.3 97.5559 57.9ZM113.706 54.2C116.406 56.8333 117.756 60.1 117.756 64C117.756 67.9 116.406 71.1667 113.706 73.8C111.006 76.4333 107.606 77.75 103.506 77.75C99.4059 77.75 96.0059 76.4333 93.3059 73.8C90.6059 71.1667 89.2559 67.9 89.2559 64C89.2559 60.1 90.6059 56.8333 93.3059 54.2C96.0059 51.5667 99.4059 50.25 103.506 50.25C107.606 50.25 111.006 51.5667 113.706 54.2Z" fill="#222222"/>
<path d="M131.002 56.25L130.252 65.5C129.952 69.3667 129.002 72.25 127.402 74.15C125.802 76.0167 123.502 77.2167 120.502 77.75L119.252 72.25C120.719 71.9833 121.852 71.3667 122.652 70.4C123.485 69.4 124.019 67.7667 124.252 65.5L125.752 51H146V77H140.002V56.25H131.002Z" fill="#222222"/>
<path d="M170.625 70.1C172.225 68.4667 173.025 66.4333 173.025 64C173.025 61.5667 172.225 59.55 170.625 57.95C169.059 56.3167 167.192 55.5 165.025 55.5C162.859 55.5 160.975 56.3167 159.375 57.95C157.809 59.55 157.025 61.5667 157.025 64C157.025 66.4333 157.809 68.4667 159.375 70.1C160.975 71.7 162.859 72.5 165.025 72.5C167.192 72.5 169.059 71.7 170.625 70.1ZM154.725 73.85C152.259 71.2167 151.025 67.9333 151.025 64C151.025 60.0667 152.259 56.8 154.725 54.2C157.225 51.5667 160.242 50.25 163.775 50.25C164.975 50.25 166.109 50.4167 167.175 50.75C168.242 51.0833 169.092 51.4833 169.725 51.95C170.392 52.3833 170.959 52.8333 171.425 53.3C171.925 53.7667 172.275 54.1667 172.475 54.5L172.775 55H173.025L173.275 51H179V77H173.275L173.025 73H172.775C172.709 73.1333 172.609 73.3167 172.475 73.55C172.342 73.75 172.009 74.1167 171.475 74.65C170.942 75.1833 170.359 75.6667 169.725 76.1C169.125 76.5 168.275 76.8667 167.175 77.2C166.109 77.5667 164.975 77.75 163.775 77.75C160.242 77.75 157.225 76.45 154.725 73.85Z" fill="#222222"/>
</svg>
